# xmcd
#
# Track frame offsets:
# 150
# 13222
# 22125
# 32485
# 47060
# 58447
# 70202
# 109167
# 124175
# 143565
# 154590
# 169060
# 181625
# 200122
# 221582
# 240760
# 259435
# 274445
# 286972
# 305167
#
# Disc length: 4223 seconds
#
#
# Revision: 1
# Processed by: cddbd v1.5.2PL0 Copyright (c) Steve Scherf et al.
# Submitted via: FreeRIP 2.945 
#
DISCID=32107d14
DTITLE=Duke Ellington - Blues And Ballads
DYEAR=2000
DGENRE=Blues
TTITLE0=In A Sentimental Mood
TTITLE1=Minor
TTITLE2=Something Sexual a/k/a Something Saxual
TTITLE3=Slow Blues Ensemble
TTITLE4=To Know You Is To Love You
TTITLE5=Meditation
TTITLE6=Long Time Blues
TTITLE7=I Cover The Waterfront
TTITLE8=Now It Ain't? a/k/a Now Ain't It
TTITLE9=Elysee
TTITLE10=Rhythm Section Blues
TTITLE11=Blue Rose
TTITLE12=Major
TTITLE13=Mood Indigo
TTITLE14=Rod La Rocque
TTITLE15=Jeep's Blues
TTITLE16=Isfahan a/k/a Elf
TTITLE17=Do Not Disturb
TTITLE18=Blues A La Willie Cook
TTITLE19=Paris Blues
EXTD=Varese Saraband - Vintage 302 066 123 2
EXTT0=
EXTT1=
EXTT2=
EXTT3=
EXTT4=vocal by Milt Grayson
EXTT5=
EXTT6=
EXTT7=
EXTT8=
EXTT9=
EXTT10=
EXTT11=
EXTT12=
EXTT13=
EXTT14=
EXTT15=
EXTT16=
EXTT17=
EXTT18=
EXTT19=vocal by Milt Grayson
PLAYORDER=
